<svg width="1451.9mm" height="597.49mm" version="1.1" viewBox="0 0 1451.9 597.49" xmlns="http://www.w3.org/2000/svg"><defs><filter id="b" x="-.091357" y="-.41819" width="1.1827" height="1.8364" color-interpolation-filters="sRGB"><feGaussianBlur stdDeviation="45.893629"/></filter><mask id="a" maskUnits="userSpaceOnUse"><g transform="matrix(.9558 0 0 .77906 19.062 26.515)"><path transform="scale(-1,1)" d="m-1341.5 119.67-30.144 17.403-30.143-17.403v-34.807l30.143-17.403 30.144 17.403z" fill="none" stroke="#fff" stroke-width="5"/><path transform="scale(-1,1)" d="m-1281.2 119.67-30.143 17.403-30.144-17.403v-34.807l30.144-17.403 30.143 17.403z" fill="none" stroke="#fff" stroke-width="5"/><path transform="scale(-1,1)" d="m-1190.8 276.3-30.144 17.403-30.143-17.403v-34.807l30.143-17.403 30.144 17.403z" fill="none" stroke="#fff" stroke-width="5"/><path transform="scale(-1,1)" d="m-1221 224.09-30.143 17.403-30.144-17.403v-34.807l30.144-17.403 30.143 17.403z" fill="none" stroke="#fff" stroke-width="5"/><path transform="scale(-1,1)" d="m-1251.1 276.3-30.143 17.403-30.144-17.403v-34.807l30.144-17.403 30.143 17.403z" fill="none" stroke="#fff" stroke-width="5"/><path transform="scale(-1,1)" d="m-1251.1 171.88-30.143 17.403-30.144-17.403v-34.807l30.144-17.403 30.143 17.403z" fill="none" stroke="#fff" stroke-width="5"/><path transform="scale(-1,1)" d="m-1221 119.67-30.143 17.403-30.144-17.403v-34.807l30.144-17.403 30.143 17.403z" fill="none" stroke="#fff" stroke-width="5"/><path transform="scale(-1,1)" d="m-1160.7 119.67-30.143 17.403-30.144-17.403v-34.807l30.144-17.403 30.143 17.403z" fill="none" stroke="#fff" stroke-width="5"/><path transform="scale(-1,1)" d="m-1190.8 171.88-30.144 17.403-30.143-17.403v-34.807l30.143-17.403 30.144 17.403z" fill="none" stroke="#fff" stroke-width="5"/><path transform="scale(-1,1)" d="m-1190.8 67.46-30.144 17.403-30.143-17.403v-34.807l30.143-17.403 30.144 17.403z" fill="none" stroke="#fff" stroke-width="5"/><path transform="scale(-1,1)" d="m-1221 15.25-30.143 17.403-30.144-17.403v-34.807l30.144-17.403 30.143 17.403z" fill="none" stroke="#fff" stroke-width="5"/><path transform="scale(-1,1)" d="m-1251.1 67.46-30.143 17.403-30.144-17.403v-34.807l30.144-17.403 30.143 17.403z" fill="none" stroke="#fff" stroke-width="5"/><path transform="scale(-1,1)" d="m-1251.1-36.96-30.143 17.403-30.144-17.403v-34.807l30.144-17.403 30.143 17.403z" fill="none" stroke="#fff" stroke-width="5"/><path transform="scale(-1,1)" d="m-1160.7 15.25-30.143 17.403-30.144-17.403v-34.807l30.144-17.403 30.143 17.403z" fill="none" stroke="#fff" stroke-width="5"/><path transform="scale(-1,1)" d="m-1100.4 15.25-30.144 17.403-30.143-17.403v-34.807l30.143-17.403 30.144 17.403z" fill="none" stroke="#fff" stroke-width="5"/><path transform="scale(-1,1)" d="m-1130.5 67.46-30.143 17.403-30.144-17.403v-34.807l30.144-17.403 30.143 17.403z" fill="none" stroke="#fff" stroke-width="5"/><path transform="scale(-1,1)" d="m-1070.2-36.96-30.144 17.403-30.143-17.403v-34.807l30.143-17.403 30.144 17.403z" fill="none" stroke="#fff" stroke-width="5"/><path transform="scale(-1,1)" d="m-1130.5 171.88-30.143 17.403-30.144-17.403v-34.807l30.144-17.403 30.143 17.403z" fill="none" stroke="#fff" stroke-width="5"/><path transform="scale(-1,1)" d="m-1070.2 171.88-30.144 17.403-30.143-17.403v-34.807l30.143-17.403 30.144 17.403z" fill="none" stroke="#fff" stroke-width="5"/><path transform="scale(-1,1)" d="m-1100.4 224.09-30.144 17.403-30.143-17.403v-34.807l30.143-17.403 30.144 17.403z" fill="none" stroke="#fff" stroke-width="5"/><path transform="scale(-1,1)" d="m-1100.4 119.67-30.144 17.403-30.143-17.403v-34.807l30.143-17.403 30.144 17.403z" fill="none" stroke="#fff" stroke-width="5"/><path transform="scale(-1,1)" d="m-1160.7 224.09-30.143 17.403-30.144-17.403v-34.807l30.144-17.403 30.143 17.403z" fill="none" stroke="#fff" stroke-width="5"/><path transform="scale(-1,1)" d="m-1070.2 67.46-30.144 17.403-30.143-17.403v-34.807l30.143-17.403 30.144 17.403z" fill="none" stroke="#fff" stroke-width="5"/><path transform="scale(-1,1)" d="m-1009.9 67.46-30.144 17.403-30.143-17.403v-34.807l30.143-17.403 30.144 17.403z" fill="none" stroke="#fff" stroke-width="5"/><path transform="scale(-1,1)" d="m-1040.1 119.67-30.144 17.403-30.143-17.403v-34.807l30.143-17.403 30.144 17.403z" fill="none" stroke="#fff" stroke-width="5"/><path transform="scale(-1,1)" d="m-1040.1 15.25-30.144 17.403-30.143-17.403v-34.807l30.143-17.403 30.144 17.403z" fill="none" stroke="#fff" stroke-width="5"/><path transform="scale(-1,1)" d="m-1009.9 276.3-30.144 17.403-30.143-17.403v-34.807l30.143-17.403 30.144 17.403z" fill="none" stroke="#fff" stroke-width="5"/><path transform="scale(-1,1)" d="m-1040.1 328.51-30.144 17.403-30.143-17.403v-34.807l30.143-17.403 30.144 17.403z" fill="none" stroke="#fff" stroke-width="5"/><path transform="scale(-1,1)" d="m-1040.1 224.09-30.144 17.403-30.143-17.403v-34.807l30.143-17.403 30.144 17.403z" fill="none" stroke="#fff" stroke-width="5"/><path transform="scale(-1,1)" d="m-1009.9 171.88-30.144 17.403-30.143-17.403v-34.807l30.143-17.403 30.144 17.403z" fill="none" stroke="#fff" stroke-width="5"/><path transform="scale(-1,1)" d="m-949.66 171.88-30.143 17.403-30.144-17.403v-34.807l30.144-17.403 30.143 17.403z" fill="none" stroke="#fff" stroke-width="5"/><path transform="scale(-1,1)" d="m-979.8 224.09-30.143 17.403-30.143-17.403v-34.807l30.143-17.403 30.143 17.403z" fill="none" stroke="#fff" stroke-width="5"/><path transform="scale(-1,1)" d="m-979.8 119.67-30.143 17.403-30.143-17.403v-34.807l30.143-17.403 30.143 17.403z" fill="none" stroke="#fff" stroke-width="5"/><path transform="scale(-1,1)" d="m-949.66 67.46-30.143 17.403-30.144-17.403v-34.807l30.144-17.403 30.143 17.403z" fill="none" stroke="#fff" stroke-width="5"/><path transform="scale(-1,1)" d="m-889.37 67.46-30.143 17.403-30.143-17.403v-34.807l30.143-17.403 30.143 17.403z" fill="none" stroke="#fff" stroke-width="5"/><path transform="scale(-1,1)" d="m-919.52 119.67-30.143 17.403-30.143-17.403v-34.807l30.143-17.403 30.143 17.403z" fill="none" stroke="#fff" stroke-width="5"/><path transform="scale(-1,1)" d="m-919.52 15.25-30.143 17.403-30.143-17.403v-34.807l30.143-17.403 30.143 17.403z" fill="none" stroke="#fff" stroke-width="5"/><path transform="scale(-1,1)" d="m-1009.9-36.96-30.144 17.403-30.143-17.403v-34.807l30.143-17.403 30.144 17.403z" fill="none" stroke="#fff" stroke-width="5"/><path transform="scale(-1,1)" d="m-979.8 15.25-30.143 17.403-30.143-17.403v-34.807l30.143-17.403 30.143 17.403z" fill="none" stroke="#fff" stroke-width="5"/><path transform="scale(-1,1)" d="m-1040.1-89.17-30.143 17.403-30.144-17.403v-34.807l30.144-17.403 30.143 17.403z" fill="none" stroke="#fff" stroke-width="5"/><path transform="scale(-1,1)" d="m-889.37 171.88-30.143 17.403-30.143-17.403v-34.807l30.143-17.403 30.143 17.403z" fill="none" stroke="#fff" stroke-width="5"/><path transform="scale(-1,1)" d="m-829.09 171.88-30.143 17.403-30.143-17.403v-34.807l30.143-17.403 30.143 17.403z" fill="none" stroke="#fff" stroke-width="5"/><path transform="scale(-1,1)" d="m-859.23 224.09-30.143 17.403-30.143-17.403v-34.807l30.143-17.403 30.143 17.403z" fill="none" stroke="#fff" stroke-width="5"/><path transform="scale(-1,1)" d="m-859.23 119.67-30.143 17.403-30.143-17.403v-34.807l30.143-17.403 30.143 17.403z" fill="none" stroke="#fff" stroke-width="5"/><path transform="scale(-1,1)" d="m-949.66 276.3-30.143 17.403-30.143-17.403v-34.807l30.143-17.403 30.143 17.403z" fill="none" stroke="#fff" stroke-width="5"/><path transform="scale(-1,1)" d="m-889.37 276.3-30.143 17.403-30.143-17.403v-34.807l30.143-17.403 30.143 17.403z" fill="none" stroke="#fff" stroke-width="5"/><path transform="scale(-1,1)" d="m-919.52 328.51-30.143 17.403-30.143-17.403v-34.807l30.143-17.403 30.143 17.403z" fill="none" stroke="#fff" stroke-width="5"/><path transform="scale(-1,1)" d="m-919.52 224.09-30.143 17.403-30.143-17.403v-34.807l30.143-17.403 30.143 17.403z" fill="none" stroke="#fff" stroke-width="5"/><path transform="scale(-1,1)" d="m-829.09 276.3-30.143 17.403-30.143-17.403v-34.807l30.143-17.403 30.143 17.403z" fill="none" stroke="#fff" stroke-width="5"/><path transform="scale(-1,1)" d="m-798.94 224.09-30.143 17.403-30.143-17.403v-34.807l30.143-17.403 30.143 17.403z" fill="none" stroke="#fff" stroke-width="5"/><path transform="scale(-1,1)" d="m-768.8 171.88-30.143 17.403-30.143-17.403v-34.807l30.143-17.403 30.143 17.403z" fill="none" stroke="#fff" stroke-width="5"/><path transform="scale(-1,1)" d="m-708.51 171.88-30.143 17.403-30.143-17.403v-34.807l30.143-17.403 30.143 17.403z" fill="none" stroke="#fff" stroke-width="5"/><path transform="scale(-1,1)" d="m-738.66 224.09-30.143 17.403-30.143-17.403v-34.807l30.143-17.403 30.143 17.403z" fill="none" stroke="#fff" stroke-width="5"/><path transform="scale(-1,1)" d="m-738.66 119.67-30.143 17.403-30.143-17.403v-34.807l30.143-17.403 30.143 17.403z" fill="none" stroke="#fff" stroke-width="5"/><path transform="scale(-1,1)" d="m-829.09 67.46-30.143 17.403-30.143-17.403v-34.807l30.143-17.403 30.143 17.403z" fill="none" stroke="#fff" stroke-width="5"/><path transform="scale(-1,1)" d="m-768.8 67.46-30.143 17.403-30.143-17.403v-34.807l30.143-17.403 30.143 17.403z" fill="none" stroke="#fff" stroke-width="5"/><path transform="scale(-1,1)" d="m-798.94 119.67-30.143 17.403-30.143-17.403v-34.807l30.143-17.403 30.143 17.403z" fill="none" stroke="#fff" stroke-width="5"/><path transform="scale(-1,1)" d="m-798.94 15.25-30.143 17.403-30.143-17.403v-34.807l30.143-17.403 30.143 17.403z" fill="none" stroke="#fff" stroke-width="5"/><path transform="scale(-1,1)" d="m-889.37-36.96-30.143 17.403-30.143-17.403v-34.807l30.143-17.403 30.143 17.403z" fill="none" stroke="#fff" stroke-width="5"/><path transform="scale(-1,1)" d="m-859.23 15.25-30.143 17.403-30.143-17.403v-34.807l30.143-17.403 30.143 17.403z" fill="none" stroke="#fff" stroke-width="5"/><path transform="scale(-1,1)" d="m-859.23-89.17-30.143 17.403-30.143-17.403v-34.807l30.143-17.403 30.143 17.403z" fill="none" stroke="#fff" stroke-width="5"/><path transform="scale(-1,1)" d="m-768.8-36.96-30.143 17.403-30.143-17.403v-34.807l30.143-17.403 30.143 17.403z" fill="none" stroke="#fff" stroke-width="5"/><path transform="scale(-1,1)" d="m-738.66 15.25-30.143 17.403-30.143-17.403v-34.807l30.143-17.403 30.143 17.403z" fill="none" stroke="#fff" stroke-width="5"/><path transform="scale(-1,1)" d="m-708.51 276.3-30.143 17.403-30.143-17.403v-34.807l30.143-17.403 30.143 17.403z" fill="none" stroke="#fff" stroke-width="5"/><path transform="scale(-1,1)" d="m-648.23 276.3-30.143 17.403-30.143-17.403v-34.807l30.143-17.403 30.143 17.403z" fill="none" stroke="#fff" stroke-width="5"/><path transform="scale(-1,1)" d="m-678.37 328.51-30.143 17.403-30.143-17.403v-34.807l30.143-17.403 30.143 17.403z" fill="none" stroke="#fff" stroke-width="5"/><path transform="scale(-1,1)" d="m-678.37 224.09-30.143 17.403-30.143-17.403v-34.807l30.143-17.403 30.143 17.403z" fill="none" stroke="#fff" stroke-width="5"/><path transform="scale(-1,1)" d="m-708.51 67.46-30.143 17.403-30.143-17.403v-34.807l30.143-17.403 30.143 17.403z" fill="none" stroke="#fff" stroke-width="5"/><path transform="scale(-1,1)" d="m-648.23 67.46-30.143 17.403-30.143-17.403v-34.807l30.143-17.403 30.143 17.403z" fill="none" stroke="#fff" stroke-width="5"/><path transform="scale(-1,1)" d="m-678.37 119.67-30.143 17.403-30.143-17.403v-34.807l30.143-17.403 30.143 17.403z" fill="none" stroke="#fff" stroke-width="5"/><path transform="scale(-1,1)" d="m-678.37 15.25-30.143 17.403-30.143-17.403v-34.807l30.143-17.403 30.143 17.403z" fill="none" stroke="#fff" stroke-width="5"/><path transform="scale(-1,1)" d="m-648.23 171.88-30.143 17.403-30.143-17.403v-34.807l30.143-17.403 30.143 17.403z" fill="none" stroke="#fff" stroke-width="5"/><path transform="scale(-1,1)" d="m-587.94 171.88-30.143 17.403-30.143-17.403v-34.807l30.143-17.403 30.143 17.403z" fill="none" stroke="#fff" stroke-width="5"/><path transform="scale(-1,1)" d="m-618.08 224.09-30.143 17.403-30.143-17.403v-34.807l30.143-17.403 30.143 17.403z" fill="none" stroke="#fff" stroke-width="5"/><path transform="scale(-1,1)" d="m-618.08 119.67-30.143 17.403-30.143-17.403v-34.807l30.143-17.403 30.143 17.403z" fill="none" stroke="#fff" stroke-width="5"/><path transform="scale(-1,1)" d="m-587.94 67.46-30.143 17.403-30.143-17.403v-34.807l30.143-17.403 30.143 17.403z" fill="none" stroke="#fff" stroke-width="5"/><path transform="scale(-1,1)" d="m-527.65 67.46-30.143 17.403-30.143-17.403v-34.807l30.143-17.403 30.143 17.403z" fill="none" stroke="#fff" stroke-width="5"/><path transform="scale(-1,1)" d="m-557.8 119.67-30.143 17.403-30.143-17.403v-34.807l30.143-17.403 30.143 17.403z" fill="none" stroke="#fff" stroke-width="5"/><path transform="scale(-1,1)" d="m-557.8 15.25-30.143 17.403-30.143-17.403v-34.807l30.143-17.403 30.143 17.403z" fill="none" stroke="#fff" stroke-width="5"/><path transform="scale(-1,1)" d="m-587.94-36.96-30.143 17.403-30.143-17.403v-34.807l30.143-17.403 30.143 17.403z" fill="none" stroke="#fff" stroke-width="5"/><path transform="scale(-1,1)" d="m-618.08 15.25-30.143 17.403-30.143-17.403v-34.807l30.143-17.403 30.143 17.403z" fill="none" stroke="#fff" stroke-width="5"/><path transform="scale(-1,1)" d="m-618.08-89.17-30.143 17.403-30.143-17.403v-34.807l30.143-17.403 30.143 17.403z" fill="none" stroke="#fff" stroke-width="5"/><path transform="scale(-1,1)" d="m-527.65-36.96-30.143 17.403-30.143-17.403v-34.807l30.143-17.403 30.143 17.403z" fill="none" stroke="#fff" stroke-width="5"/><path transform="scale(-1,1)" d="m-467.37-36.96-30.143 17.403-30.143-17.403v-34.807l30.143-17.403 30.143 17.403z" fill="none" stroke="#fff" stroke-width="5"/><path transform="scale(-1,1)" d="m-497.51 15.25-30.143 17.403-30.143-17.403v-34.807l30.143-17.403 30.143 17.403z" fill="none" stroke="#fff" stroke-width="5"/><path transform="scale(-1,1)" d="m-497.51-89.17-30.143 17.403-30.143-17.403v-34.807l30.143-17.403 30.143 17.403z" fill="none" stroke="#fff" stroke-width="5"/><path transform="scale(-1,1)" d="m-497.51 119.67-30.143 17.403-30.143-17.403v-34.807l30.143-17.403 30.143 17.403z" fill="none" stroke="#fff" stroke-width="5"/><path transform="scale(-1,1)" d="m-437.22 119.67-30.143 17.403-30.143-17.403v-34.807l30.143-17.403 30.143 17.403z" fill="none" stroke="#fff" stroke-width="5"/><path transform="scale(-1,1)" d="m-467.37 171.88-30.143 17.403-30.143-17.403v-34.807l30.143-17.403 30.143 17.403z" fill="none" stroke="#fff" stroke-width="5"/><path transform="scale(-1,1)" d="m-467.37 67.46-30.143 17.403-30.143-17.403v-34.807l30.143-17.403 30.143 17.403z" fill="none" stroke="#fff" stroke-width="5"/><path transform="scale(-1,1)" d="m-557.8 224.09-30.143 17.403-30.143-17.403v-34.807l30.143-17.403 30.143 17.403z" fill="none" stroke="#fff" stroke-width="5"/><path transform="scale(-1,1)" d="m-497.51 224.09-30.143 17.403-30.143-17.403v-34.807l30.143-17.403 30.143 17.403z" fill="none" stroke="#fff" stroke-width="5"/><path transform="scale(-1,1)" d="m-527.65 276.3-30.143 17.403-30.143-17.403v-34.807l30.143-17.403 30.143 17.403z" fill="none" stroke="#fff" stroke-width="5"/><path transform="scale(-1,1)" d="m-527.65 171.88-30.143 17.403-30.143-17.403v-34.807l30.143-17.403 30.143 17.403z" fill="none" stroke="#fff" stroke-width="5"/><path transform="scale(-1,1)" d="m-437.22 15.25-30.143 17.403-30.143-17.403v-34.807l30.143-17.403 30.143 17.403z" fill="none" stroke="#fff" stroke-width="5"/><path transform="scale(-1,1)" d="m-376.94 15.25-30.143 17.403-30.143-17.403v-34.807l30.143-17.403 30.143 17.403z" fill="none" stroke="#fff" stroke-width="5"/><path transform="scale(-1,1)" d="m-407.08 67.46-30.143 17.403-30.143-17.403v-34.807l30.143-17.403 30.143 17.403z" fill="none" stroke="#fff" stroke-width="5"/><path transform="scale(-1,1)" d="m-407.08-36.96-30.143 17.403-30.143-17.403v-34.807l30.143-17.403 30.143 17.403z" fill="none" stroke="#fff" stroke-width="5"/><path transform="scale(-1,1)" d="m-437.22 224.09-30.143 17.403-30.143-17.403v-34.807l30.143-17.403 30.143 17.403z" fill="none" stroke="#fff" stroke-width="5"/><path transform="scale(-1,1)" d="m-376.94 224.09-30.143 17.403-30.143-17.403v-34.807l30.143-17.403 30.143 17.403z" fill="none" stroke="#fff" stroke-width="5"/><path transform="scale(-1,1)" d="m-407.08 276.3-30.143 17.403-30.143-17.403v-34.807l30.143-17.403 30.143 17.403z" fill="none" stroke="#fff" stroke-width="5"/><path transform="scale(-1,1)" d="m-407.08 171.88-30.143 17.403-30.143-17.403v-34.807l30.143-17.403 30.143 17.403z" fill="none" stroke="#fff" stroke-width="5"/><path transform="scale(-1,1)" d="m-376.94 119.67-30.143 17.403-30.143-17.403v-34.807l30.143-17.403 30.143 17.403z" fill="none" stroke="#fff" stroke-width="5"/><path transform="scale(-1,1)" d="m-316.65 119.67-30.143 17.403-30.143-17.403v-34.807l30.143-17.403 30.143 17.403z" fill="none" stroke="#fff" stroke-width="5"/><path transform="scale(-1,1)" d="m-346.79 171.88-30.143 17.403-30.143-17.403v-34.807l30.143-17.403 30.143 17.403z" fill="none" stroke="#fff" stroke-width="5"/><path transform="scale(-1,1)" d="m-346.79 67.46-30.143 17.403-30.143-17.403v-34.807l30.143-17.403 30.143 17.403z" fill="none" stroke="#fff" stroke-width="5"/><path transform="scale(-1,1)" d="m-316.65 15.25-30.143 17.403-30.143-17.403v-34.807l30.143-17.403 30.143 17.403z" fill="none" stroke="#fff" stroke-width="5"/><path transform="scale(-1,1)" d="m-256.36 15.25-30.143 17.403-30.143-17.403v-34.807l30.143-17.403 30.143 17.403z" fill="none" stroke="#fff" stroke-width="5"/><path transform="scale(-1,1)" d="m-286.5 67.46-30.143 17.403-30.143-17.403v-34.807l30.143-17.403 30.143 17.403z" fill="none" stroke="#fff" stroke-width="5"/><path transform="scale(-1,1)" d="m-286.5-36.96-30.143 17.403-30.143-17.403v-34.807l30.143-17.403 30.143 17.403z" fill="none" stroke="#fff" stroke-width="5"/><path transform="scale(-1,1)" d="m-376.94-89.17-30.143 17.403-30.143-17.403v-34.807l30.143-17.403 30.143 17.403z" fill="none" stroke="#fff" stroke-width="5"/><path transform="scale(-1,1)" d="m-316.65-89.17-30.143 17.403-30.143-17.403v-34.807l30.143-17.403 30.143 17.403z" fill="none" stroke="#fff" stroke-width="5"/><path transform="scale(-1,1)" d="m-346.79-36.96-30.143 17.403-30.143-17.403v-34.807l30.143-17.403 30.143 17.403z" fill="none" stroke="#fff" stroke-width="5"/><path transform="scale(-1,1)" d="m-346.79-141.38-30.143 17.403-30.143-17.403v-34.807l30.143-17.403 30.143 17.403z" fill="none" stroke="#fff" stroke-width="5"/><path transform="scale(-1,1)" d="m-256.36 119.67-30.143 17.403-30.143-17.403v-34.807l30.143-17.403 30.143 17.403z" fill="none" stroke="#fff" stroke-width="5"/><path transform="scale(-1,1)" d="m-196.07 119.67-30.143 17.403-30.143-17.403v-34.807l30.143-17.403 30.143 17.403z" fill="none" stroke="#fff" stroke-width="5"/><path transform="scale(-1,1)" d="m-226.22 171.88-30.143 17.403-30.143-17.403v-34.807l30.143-17.403 30.143 17.403z" fill="none" stroke="#fff" stroke-width="5"/><path transform="scale(-1,1)" d="m-226.22 67.46-30.143 17.403-30.143-17.403v-34.807l30.143-17.403 30.143 17.403z" fill="none" stroke="#fff" stroke-width="5"/><path transform="scale(-1,1)" d="m-316.65 224.09-30.143 17.403-30.143-17.403v-34.807l30.143-17.403 30.143 17.403z" fill="none" stroke="#fff" stroke-width="5"/><path transform="scale(-1,1)" d="m-256.36 224.09-30.143 17.403-30.143-17.403v-34.807l30.143-17.403 30.143 17.403z" fill="none" stroke="#fff" stroke-width="5"/><path transform="scale(-1,1)" d="m-286.5 276.3-30.143 17.403-30.143-17.403v-34.807l30.143-17.403 30.143 17.403z" fill="none" stroke="#fff" stroke-width="5"/><path transform="scale(-1,1)" d="m-286.5 171.88-30.143 17.403-30.143-17.403v-34.807l30.143-17.403 30.143 17.403z" fill="none" stroke="#fff" stroke-width="5"/><path transform="scale(-1,1)" d="m-196.07 224.09-30.143 17.403-30.143-17.403v-34.807l30.143-17.403 30.143 17.403z" fill="none" stroke="#fff" stroke-width="5"/><path transform="scale(-1,1)" d="m-135.79 224.09-30.143 17.403-30.143-17.403v-34.807l30.143-17.403 30.143 17.403z" fill="none" stroke="#fff" stroke-width="5"/><path transform="scale(-1,1)" d="m-165.93 276.3-30.143 17.403-30.143-17.403v-34.807l30.143-17.403 30.143 17.403z" fill="none" stroke="#fff" stroke-width="5"/><path transform="scale(-1,1)" d="m-165.93 171.88-30.143 17.403-30.143-17.403v-34.807l30.143-17.403 30.143 17.403z" fill="none" stroke="#fff" stroke-width="5"/><path transform="scale(-1,1)" d="m-135.79 119.67-30.143 17.403-30.143-17.403v-34.807l30.143-17.403 30.143 17.403z" fill="none" stroke="#fff" stroke-width="5"/><path transform="scale(-1,1)" d="m-75.501 119.67-30.143 17.403-30.143-17.403v-34.807l30.143-17.403 30.143 17.403z" fill="none" stroke="#fff" stroke-width="5"/><path transform="scale(-1,1)" d="m-105.64 171.88-30.143 17.403-30.143-17.403v-34.807l30.143-17.403 30.143 17.403z" fill="none" stroke="#fff" stroke-width="5"/><path transform="scale(-1,1)" d="m-105.64 67.459-30.143 17.403-30.143-17.403v-34.807l30.143-17.403 30.143 17.403z" fill="none" stroke="#fff" stroke-width="5"/><path transform="scale(-1,1)" d="m-196.07 15.25-30.143 17.403-30.143-17.403v-34.807l30.143-17.403 30.143 17.403z" fill="none" stroke="#fff" stroke-width="5"/><path transform="scale(-1,1)" d="m-135.79 15.25-30.143 17.403-30.143-17.403v-34.807l30.143-17.403 30.143 17.403z" fill="none" stroke="#fff" stroke-width="5"/><path transform="scale(-1,1)" d="m-165.93 67.46-30.143 17.403-30.143-17.403v-34.807l30.143-17.403 30.143 17.403z" fill="none" stroke="#fff" stroke-width="5"/><path transform="scale(-1,1)" d="m-165.93-36.96-30.143 17.403-30.143-17.403v-34.807l30.143-17.403 30.143 17.403z" fill="none" stroke="#fff" stroke-width="5"/><path transform="scale(-1,1)" d="m-256.36-89.17-30.143 17.403-30.143-17.403v-34.807l30.143-17.403 30.143 17.403z" fill="none" stroke="#fff" stroke-width="5"/><path transform="scale(-1,1)" d="m-196.07-89.17-30.143 17.403-30.143-17.403v-34.807l30.143-17.403 30.143 17.403z" fill="none" stroke="#fff" stroke-width="5"/><path transform="scale(-1,1)" d="m-226.22-36.96-30.143 17.403-30.143-17.403v-34.807l30.143-17.403 30.143 17.403z" fill="none" stroke="#fff" stroke-width="5"/><path transform="scale(-1,1)" d="m-226.22-141.38-30.143 17.403-30.143-17.403v-34.807l30.143-17.403 30.143 17.403z" fill="none" stroke="#fff" stroke-width="5"/><path transform="scale(-1,1)" d="m-105.64-36.96-30.143 17.403-30.143-17.403v-34.807l30.143-17.403 30.143 17.403z" fill="none" stroke="#fff" stroke-width="5"/><path transform="scale(-1,1)" d="m-75.501 224.09-30.143 17.403-30.143-17.403v-34.807l30.143-17.403 30.143 17.403z" fill="none" stroke="#fff" stroke-width="5"/><path transform="scale(-1,1)" d="m-15.214 224.09-30.143 17.403-30.143-17.403v-34.807l30.143-17.403 30.143 17.403z" fill="none" stroke="#fff" stroke-width="5"/><path transform="scale(-1,1)" d="m-45.357 171.88-30.143 17.403-30.143-17.403v-34.807l30.143-17.403 30.143 17.403z" fill="none" stroke="#fff" stroke-width="5"/><path transform="scale(-1,1)" d="m-557.8 328.51-30.143 17.403-30.143-17.403v-34.807l30.143-17.403 30.143 17.403z" fill="none" stroke="#fff" stroke-width="5"/><path transform="scale(-1,1)" d="m-587.94 380.72-30.143 17.403-30.143-17.403v-34.807l30.143-17.403 30.143 17.403z" fill="none" stroke="#fff" stroke-width="5"/><path transform="scale(-1,1)" d="m-587.94 276.3-30.143 17.403-30.143-17.403v-34.807l30.143-17.403 30.143 17.403z" fill="none" stroke="#fff" stroke-width="5"/><path transform="scale(-1,1)" d="m-497.51 328.51-30.143 17.403-30.143-17.403v-34.807l30.143-17.403 30.143 17.403z" fill="none" stroke="#fff" stroke-width="5"/><path transform="scale(-1,1)" d="m-316.65 328.51-30.143 17.403-30.143-17.403v-34.807l30.143-17.403 30.143 17.403z" fill="none" stroke="#fff" stroke-width="5"/><path transform="scale(-1,1)" d="m-346.79 380.72-30.143 17.403-30.143-17.403v-34.807l30.143-17.403 30.143 17.403z" fill="none" stroke="#fff" stroke-width="5"/><path transform="scale(-1,1)" d="m-346.79 276.3-30.143 17.403-30.143-17.403v-34.807l30.143-17.403 30.143 17.403z" fill="none" stroke="#fff" stroke-width="5"/><path transform="scale(-1,1)" d="m-256.36 328.51-30.143 17.403-30.143-17.403v-34.807l30.143-17.403 30.143 17.403z" fill="none" stroke="#fff" stroke-width="5"/><path transform="scale(-1,1)" d="m-226.22 276.3-30.143 17.403-30.143-17.403v-34.807l30.143-17.403 30.143 17.403z" fill="none" stroke="#fff" stroke-width="5"/><path transform="scale(-1,1)" d="m-135.79 328.51-30.143 17.403-30.143-17.403v-34.807l30.143-17.403 30.143 17.403z" fill="none" stroke="#fff" stroke-width="5"/><path transform="scale(-1,1)" d="m-105.64 380.72-30.143 17.403-30.143-17.403v-34.807l30.143-17.403 30.143 17.403z" fill="none" stroke="#fff" stroke-width="5"/><path transform="scale(-1,1)" d="m-105.64 276.3-30.143 17.403-30.143-17.403v-34.807l30.143-17.403 30.143 17.403z" fill="none" stroke="#fff" stroke-width="5"/><path transform="scale(-1,1)" d="m-15.214 15.25-30.143 17.403-30.143-17.403 1e-6 -34.807 30.143-17.403 30.143 17.403z" fill="none" stroke="#fff" stroke-width="5"/><path transform="scale(-1,1)" d="m-15.213 119.67-30.143 17.403-30.143-17.403v-34.807l30.143-17.403 30.143 17.403z" fill="none" stroke="#fff" stroke-width="5"/><path transform="scale(-1,1)" d="m45.074 119.67-30.143 17.403-30.143-17.403v-34.807l30.143-17.403 30.143 17.403z" fill="none" stroke="#fff" stroke-width="5"/><path transform="scale(-1,1)" d="m14.93 67.46-30.143 17.403-30.143-17.403v-34.807l30.143-17.403 30.143 17.403z" fill="none" stroke="#fff" stroke-width="5"/><path transform="scale(-1,1)" d="m-859.23 328.51-30.143 17.403-30.143-17.403v-34.807l30.143-17.403 30.143 17.403z" fill="none" stroke="#fff" stroke-width="5"/></g></mask></defs><g transform="translate(47.574 196.48)"><rect transform="matrix(1.0462 0 0 1.2836 -19.943 -34.034)" x="75.794" y="-21.859" width="1205.6" height="263.38" rx="230.71" ry="174.6" fill="#fff" fill-opacity=".29798" filter="url(#b)" mask="url(#a)"/></g></svg>
